<?xml version="1.0" encoding="utf-8"?>
<!-- Generator: Adobe Illustrator 25.3.1, SVG Export Plug-In . SVG Version: 6.00 Build 0)  -->
<svg version="1.1" id="Layer_1" xmlns="http://www.w3.org/2000/svg" xmlns:xlink="http://www.w3.org/1999/xlink" x="0px" y="0px"
	 viewBox="0 0 32 28" style="enable-background:new 0 0 32 28;" xml:space="preserve">
<style type="text/css">
	.st0{fill:#FFFFFF;}
</style>
<path class="st0" d="M31.6,0.2C31.8,0.4,32,0.7,32,1v22c0,0.4-0.2,0.8-0.6,0.9l-10,4c-0.2,0.1-0.5,0.1-0.8,0L11,24.1l-9.6,3.8
	C1.3,28,1.1,28,1,28c-0.2,0-0.4-0.1-0.6-0.2C0.2,27.6,0,27.3,0,27V5c0-0.4,0.2-0.8,0.6-0.9l10-4c0.2-0.1,0.5-0.1,0.8,0L21,3.9
	l9.6-3.8C30.9,0,31.3,0,31.6,0.2L31.6,0.2z M11.5,2.3v19.8l9,3.6V5.9L11.5,2.3z M2,5.7v19.8l8.5-3.4V2.3L2,5.7z M30,22.3V2.5
	l-8.5,3.4v19.8L30,22.3z"/>
</svg>
