<?xml version="1.0" encoding="utf-8"?>
<!-- Generator: Adobe Illustrator 25.3.1, SVG Export Plug-In . SVG Version: 6.00 Build 0)  -->
<svg version="1.1" id="Layer_1" xmlns="http://www.w3.org/2000/svg" xmlns:xlink="http://www.w3.org/1999/xlink" x="0px" y="0px"
	 viewBox="0 0 24 28" style="enable-background:new 0 0 24 28;" xml:space="preserve">
<style type="text/css">
	.st0{fill:#FFFFFF;}
</style>
<path class="st0" d="M8,14.2v2H4.1v-2C4.1,14.2,8,14.2,8,14.2z M8,10.2v2H4.1v-2H8z M19.9,18.2v2h-5.3v-2H19.9z M19.9,14.2v2H9.4v-2
	H19.9z M19.9,10.3v2H9.4v-2H19.9z M22,23.7V4.3C22,4.1,21.9,4,21.7,4h-0.5l-5.9,4L12,5.3L8.7,8L2.8,4H2.3C2.1,4,2,4.1,2,4.3v19.4
	C2,23.9,2.1,24,2.3,24h19.4C21.9,24,22,23.9,22,23.7L22,23.7z M8.6,6.3L11.5,4H5.2L8.6,6.3z M15.4,6.3L18.8,4h-6.3L15.4,6.3z
	 M24,4.3v19.4c0,1.3-1,2.3-2.3,2.3H2.3C1,26,0,25,0,23.7V4.3C0,3,1,2,2.3,2h19.4C23,2,24,3,24,4.3z"/>
</svg>
