<?xml version="1.0" encoding="utf-8"?>
<!-- Generator: Adobe Illustrator 25.3.1, SVG Export Plug-In . SVG Version: 6.00 Build 0)  -->
<svg version="1.1" id="Layer_1" xmlns="http://www.w3.org/2000/svg" xmlns:xlink="http://www.w3.org/1999/xlink" x="0px" y="0px"
	 viewBox="0 0 24 28" style="enable-background:new 0 0 24 28;" xml:space="preserve">
<style type="text/css">
	.st0{fill:#FFFFFF;}
</style>
<path class="st0" d="M18.8,12.2c2.2,0.6,5.2,2.8,5.2,9.9c0,3.2-2.4,5.8-5.3,5.8H5.3C2.4,28,0,25.4,0,22.2c0-7.1,3-9.3,5.2-9.9
	C4.5,11,4,9.6,4,8c0-4.4,3.6-8,8-8s8,3.6,8,8C20,9.6,19.5,11,18.8,12.2z M12,2C8.7,2,6,4.7,6,8s2.7,6,6,6s6-2.7,6-6S15.3,2,12,2z
	 M18.7,26c1.8,0,3.3-1.7,3.3-3.8c0-4.9-1.7-8-4.8-8.2c-1.4,1.2-3.2,2-5.2,2s-3.8-0.8-5.2-2C3.7,14.2,2,17.2,2,22.2
	C2,24.3,3.5,26,5.3,26H18.7z"/>
</svg>
